<mxfile host="app.diagrams.net" agent="Mozilla/5.0 (Windows NT 10.0; Win64; x64) AppleWebKit/537.36 (KHTML, like Gecko) Chrome/128.0.0.0 Safari/537.36" version="24.7.14">
  <diagram name="Page-1" id="bg0tK8jF0rgqQCQWf3QL">
    <mxGraphModel dx="1231" dy="552" grid="1" gridSize="10" guides="1" tooltips="1" connect="1" arrows="1" fold="1" page="1" pageScale="1" pageWidth="827" pageHeight="1169" math="0" shadow="0">
      <root>
        <mxCell id="0" />
        <mxCell id="1" parent="0" />
        <mxCell id="MP_90kUHpcmGcuiTTCt7-1" value="&lt;font face=&quot;Times New Roman&quot;&gt;Initial Selection&lt;br&gt;87 paper&lt;/font&gt;" style="rounded=1;whiteSpace=wrap;html=1;strokeWidth=1;perimeterSpacing=0;fillColor=#f8cecc;strokeColor=#000000;" parent="1" vertex="1">
          <mxGeometry x="309" y="200" width="180" height="40" as="geometry" />
        </mxCell>
        <mxCell id="MP_90kUHpcmGcuiTTCt7-3" value="&lt;font face=&quot;Times New Roman&quot;&gt;IEEE Xplore&lt;br&gt;13 Paper&lt;/font&gt;" style="rounded=0;whiteSpace=wrap;html=1;strokeWidth=1;fillColor=#e1d5e7;strokeColor=default;" parent="1" vertex="1">
          <mxGeometry x="59" y="80" width="90" height="30" as="geometry" />
        </mxCell>
        <mxCell id="MP_90kUHpcmGcuiTTCt7-4" value="&lt;font face=&quot;Times New Roman&quot;&gt;SpringerLink&lt;br&gt;9 Paper&lt;/font&gt;" style="rounded=0;whiteSpace=wrap;html=1;strokeWidth=1;fillColor=#e1d5e7;strokeColor=#000000;" parent="1" vertex="1">
          <mxGeometry x="179" y="80" width="90" height="30" as="geometry" />
        </mxCell>
        <mxCell id="MP_90kUHpcmGcuiTTCt7-5" value="&lt;font face=&quot;Times New Roman&quot;&gt;Science Direct&lt;br&gt;12 Paper&lt;/font&gt;" style="rounded=0;whiteSpace=wrap;html=1;strokeWidth=1;fillColor=#e1d5e7;strokeColor=#000000;" parent="1" vertex="1">
          <mxGeometry x="299" y="80" width="90" height="30" as="geometry" />
        </mxCell>
        <mxCell id="MP_90kUHpcmGcuiTTCt7-6" value="&lt;span style=&quot;line-height: 107%;&quot;&gt;&lt;font face=&quot;Times New Roman&quot; style=&quot;font-size: 12px;&quot;&gt;ACM&amp;nbsp; Library&lt;br&gt;17 Paper&lt;/font&gt;&lt;/span&gt;" style="rounded=0;whiteSpace=wrap;html=1;strokeWidth=1;fillColor=#e1d5e7;strokeColor=#000000;" parent="1" vertex="1">
          <mxGeometry x="419" y="80" width="90" height="30" as="geometry" />
        </mxCell>
        <mxCell id="MP_90kUHpcmGcuiTTCt7-7" value="&lt;span style=&quot;line-height: 107%; font-family: &amp;quot;Times New Roman&amp;quot;, serif;&quot;&gt;&lt;font style=&quot;font-size: 12px;&quot;&gt;IGI Global&lt;br&gt;10 Paper&lt;/font&gt;&lt;/span&gt;" style="rounded=0;whiteSpace=wrap;html=1;strokeWidth=1;fillColor=#e1d5e7;strokeColor=#000000;" parent="1" vertex="1">
          <mxGeometry x="539" y="80" width="90" height="30" as="geometry" />
        </mxCell>
        <mxCell id="MP_90kUHpcmGcuiTTCt7-8" value="&lt;font style=&quot;font-size: 12px;&quot;&gt;&lt;span style=&quot;line-height: 107%;&quot;&gt;Wiley&amp;nbsp;&lt;/span&gt;&lt;span style=&quot;font-family: &amp;quot;Times New Roman&amp;quot;;&quot;&gt;Library&lt;br&gt;7 Paper&lt;/span&gt;&lt;/font&gt;" style="rounded=0;whiteSpace=wrap;html=1;strokeWidth=1;fillColor=#e1d5e7;strokeColor=#000000;" parent="1" vertex="1">
          <mxGeometry x="659" y="80" width="90" height="30" as="geometry" />
        </mxCell>
        <mxCell id="MP_90kUHpcmGcuiTTCt7-10" value="" style="endArrow=none;html=1;rounded=0;entryX=0.666;entryY=1.018;entryDx=0;entryDy=0;entryPerimeter=0;strokeWidth=2;" parent="1" target="MP_90kUHpcmGcuiTTCt7-8" edge="1">
          <mxGeometry width="50" height="50" relative="1" as="geometry">
            <mxPoint x="399" y="150" as="sourcePoint" />
            <mxPoint x="719" y="160" as="targetPoint" />
            <Array as="points">
              <mxPoint x="719" y="150" />
              <mxPoint x="719" y="140" />
            </Array>
          </mxGeometry>
        </mxCell>
        <mxCell id="MP_90kUHpcmGcuiTTCt7-11" value="" style="endArrow=classic;html=1;rounded=0;entryX=0.5;entryY=0;entryDx=0;entryDy=0;endSize=2;strokeWidth=2;" parent="1" target="MP_90kUHpcmGcuiTTCt7-1" edge="1">
          <mxGeometry width="50" height="50" relative="1" as="geometry">
            <mxPoint x="89" y="110" as="sourcePoint" />
            <mxPoint x="339" y="150" as="targetPoint" />
            <Array as="points">
              <mxPoint x="89" y="150" />
              <mxPoint x="399" y="150" />
            </Array>
          </mxGeometry>
        </mxCell>
        <mxCell id="MP_90kUHpcmGcuiTTCt7-12" value="" style="endArrow=none;html=1;rounded=0;exitX=0.5;exitY=1;exitDx=0;exitDy=0;strokeWidth=2;" parent="1" source="MP_90kUHpcmGcuiTTCt7-4" edge="1">
          <mxGeometry width="50" height="50" relative="1" as="geometry">
            <mxPoint x="399" y="130" as="sourcePoint" />
            <mxPoint x="224" y="150" as="targetPoint" />
          </mxGeometry>
        </mxCell>
        <mxCell id="MP_90kUHpcmGcuiTTCt7-14" value="" style="endArrow=none;html=1;rounded=0;exitX=0.5;exitY=1;exitDx=0;exitDy=0;strokeWidth=2;" parent="1" edge="1">
          <mxGeometry width="50" height="50" relative="1" as="geometry">
            <mxPoint x="343.76" y="110" as="sourcePoint" />
            <mxPoint x="343.76" y="150" as="targetPoint" />
          </mxGeometry>
        </mxCell>
        <mxCell id="MP_90kUHpcmGcuiTTCt7-15" value="" style="endArrow=none;html=1;rounded=0;exitX=0.5;exitY=1;exitDx=0;exitDy=0;strokeWidth=2;" parent="1" edge="1">
          <mxGeometry width="50" height="50" relative="1" as="geometry">
            <mxPoint x="463.76" y="110" as="sourcePoint" />
            <mxPoint x="463.76" y="150" as="targetPoint" />
          </mxGeometry>
        </mxCell>
        <mxCell id="MP_90kUHpcmGcuiTTCt7-16" value="" style="endArrow=none;html=1;rounded=0;exitX=0.5;exitY=1;exitDx=0;exitDy=0;strokeWidth=2;" parent="1" edge="1">
          <mxGeometry width="50" height="50" relative="1" as="geometry">
            <mxPoint x="583.76" y="110" as="sourcePoint" />
            <mxPoint x="583.76" y="150" as="targetPoint" />
          </mxGeometry>
        </mxCell>
        <mxCell id="MP_90kUHpcmGcuiTTCt7-17" value="&lt;font face=&quot;Times New Roman&quot;&gt;Secondary Filtering&lt;br&gt;30 Paper&lt;/font&gt;" style="rounded=1;whiteSpace=wrap;html=1;strokeWidth=1;fillColor=#f8cecc;strokeColor=#000000;" parent="1" vertex="1">
          <mxGeometry x="309" y="300" width="180" height="40" as="geometry" />
        </mxCell>
        <mxCell id="MP_90kUHpcmGcuiTTCt7-18" value="" style="endArrow=classic;html=1;rounded=0;entryX=0.5;entryY=0;entryDx=0;entryDy=0;endSize=2;strokeWidth=2;" parent="1" target="MP_90kUHpcmGcuiTTCt7-17" edge="1">
          <mxGeometry width="50" height="50" relative="1" as="geometry">
            <mxPoint x="399" y="240" as="sourcePoint" />
            <mxPoint x="399" y="260" as="targetPoint" />
            <Array as="points" />
          </mxGeometry>
        </mxCell>
        <mxCell id="MP_90kUHpcmGcuiTTCt7-19" value="&lt;font face=&quot;Times New Roman&quot;&gt;After Applying Inclusion and Exclusion&lt;/font&gt;&lt;div&gt;&lt;font face=&quot;lWxwSKn5CQMHymq8RyLP&quot;&gt;&amp;nbsp;Criteria&lt;/font&gt;&lt;/div&gt;" style="text;html=1;align=center;verticalAlign=middle;whiteSpace=wrap;rounded=0;" parent="1" vertex="1">
          <mxGeometry x="399" y="230" width="90" height="80" as="geometry" />
        </mxCell>
        <mxCell id="MP_90kUHpcmGcuiTTCt7-20" value="&lt;font face=&quot;Times New Roman&quot;&gt;Final Selection&lt;br&gt;13 Paper&lt;/font&gt;" style="rounded=1;whiteSpace=wrap;html=1;strokeWidth=1;fillColor=#f8cecc;strokeColor=#000000;" parent="1" vertex="1">
          <mxGeometry x="309" y="380" width="180" height="40" as="geometry" />
        </mxCell>
        <mxCell id="MP_90kUHpcmGcuiTTCt7-21" value="" style="endArrow=classic;html=1;rounded=0;endSize=2;strokeWidth=2;entryX=0.5;entryY=0;entryDx=0;entryDy=0;exitX=0.5;exitY=1;exitDx=0;exitDy=0;" parent="1" source="MP_90kUHpcmGcuiTTCt7-17" target="MP_90kUHpcmGcuiTTCt7-20" edge="1">
          <mxGeometry width="50" height="50" relative="1" as="geometry">
            <mxPoint x="400" y="330" as="sourcePoint" />
            <mxPoint x="399" y="360" as="targetPoint" />
            <Array as="points" />
          </mxGeometry>
        </mxCell>
        <mxCell id="MP_90kUHpcmGcuiTTCt7-22" value="&lt;font face=&quot;Times New Roman&quot;&gt;Google Scholar&lt;br&gt;19 Paper&lt;/font&gt;" style="rounded=0;whiteSpace=wrap;html=1;strokeWidth=1;fillColor=#e1d5e7;strokeColor=#000000;" parent="1" vertex="1">
          <mxGeometry x="550" y="205" width="90" height="30" as="geometry" />
        </mxCell>
        <mxCell id="MP_90kUHpcmGcuiTTCt7-23" value="" style="endArrow=classic;html=1;rounded=0;entryX=1;entryY=0.5;entryDx=0;entryDy=0;strokeWidth=2;jumpSize=4;endSize=2;exitX=0;exitY=0.5;exitDx=0;exitDy=0;" parent="1" source="MP_90kUHpcmGcuiTTCt7-22" target="MP_90kUHpcmGcuiTTCt7-1" edge="1">
          <mxGeometry width="50" height="50" relative="1" as="geometry">
            <mxPoint x="579" y="200" as="sourcePoint" />
            <mxPoint x="629" y="150" as="targetPoint" />
          </mxGeometry>
        </mxCell>
        <mxCell id="MP_90kUHpcmGcuiTTCt7-25" value="&lt;font face=&quot;Times New Roman&quot;&gt;After detailed Review&lt;/font&gt;" style="text;html=1;align=center;verticalAlign=middle;whiteSpace=wrap;rounded=0;" parent="1" vertex="1">
          <mxGeometry x="399" y="347" width="90" height="30" as="geometry" />
        </mxCell>
        <mxCell id="MP_90kUHpcmGcuiTTCt7-30" value="&lt;font face=&quot;Times New Roman&quot;&gt;Initial Search&lt;/font&gt;" style="text;html=1;align=center;verticalAlign=middle;whiteSpace=wrap;rounded=0;" parent="1" vertex="1">
          <mxGeometry x="399" y="160" width="90" height="30" as="geometry" />
        </mxCell>
      </root>
    </mxGraphModel>
  </diagram>
</mxfile>
